# xmcd CD database file
# Copyright (C) 1993-1996 Ti Kan
#
# Track frame offsets:
#  150
#  13973
#  28705
#  41432
#  52769
#  64678
#  80438
#  141738
#  154977
#  165842
#  176061
#  188219
#  202556
#  216706
#  229554
#  239429
#  252550
#  264122
#  272431
#  284913
#  294674
#  308459
#
# Disc length: 4272 seconds
#
# Revision: 1
# Processed by: cddbd v1.5.1PL0 Copyright (c) Steve Scherf et al.
# Submitted via: Advanced CD Ripper Pro 2.0
#
DISCID=3e10ae16
DTITLE=Unknown Artist - Unknown Album
DYEAR=2003
DGENRE=
TTITLE0=You Can't Break The Chains Of Love
TTITLE1=Green Green Grass Of Home
TTITLE2=Folsom Prison Blues
TTITLE3=Too Many Bridges To Cross
TTITLE4=She Thinks I Still Care
TTITLE5=Hungry Eyes
TTITLE6=Silver Wings
TTITLE7=Mum And Dad's Waltz
TTITLE8=Today I Started Loving You Again
TTITLE9=Mama Tried
TTITLE10=Little Ole Wine Drinker Me
TTITLE11=Branded Man
TTITLE12=Somewhere Between
TTITLE13=Sing Me Back Home
TTITLE14=Forever And Ever
TTITLE15=Swinging Doors
TTITLE16=I'd Trade Of All My Tomorrows
TTITLE17=Walkin' The Floor Over You
TTITLE18=The Worst Is Yet To Come
TTITLE19=Bingo
TTITLE20=Black Hills Of Dakota
TTITLE21=Waltz Across Texas
EXTD=
EXTT0=
EXTT1=
EXTT2=
EXTT3=
EXTT4=
EXTT5=
EXTT6=
EXTT7=
EXTT8=
EXTT9=
EXTT10=
EXTT11=
EXTT12=
EXTT13=
EXTT14=
EXTT15=
EXTT16=
EXTT17=
EXTT18=
EXTT19=
EXTT20=
EXTT21=
PLAYORDER=
